<svg width="42" height="37" viewBox="0 0 42 37" fill="none" xmlns="http://www.w3.org/2000/svg">
<path d="M41.2698 23.1329C41.2698 25.3947 40.702 27.5263 39.7147 29.4092C37.3203 33.9092 32.4453 37 26.805 37C24.2255 37 21.7941 36.3487 19.7084 35.2118C19.5726 35.1289 19.4245 35.0579 19.2887 34.975C19.0913 34.8684 18.9061 34.75 18.721 34.6316C15.3763 32.4645 13.0313 28.9829 12.476 24.9566C12.4636 24.8737 12.4513 24.7789 12.4389 24.696C12.3772 24.1868 12.3525 23.6658 12.3525 23.1329C12.3525 19.9947 13.4386 17.0934 15.2776 14.7724C15.438 14.571 15.5985 14.3697 15.7713 14.1803C18.4124 11.1605 22.3742 9.25394 26.805 9.25394C29.0389 9.25394 31.1617 9.73946 33.05 10.6039C33.3462 10.746 33.6424 10.8881 33.9263 11.0421C38.3077 13.4342 41.2698 17.946 41.2698 23.1329Z" fill="#F39798"/>
<path d="M22.3617 29.1132C24.5497 29.1132 26.3235 27.4113 26.3235 25.3119C26.3235 23.2125 24.5497 21.5106 22.3617 21.5106C20.1736 21.5106 18.3999 23.2125 18.3999 25.3119C18.3999 27.4113 20.1736 29.1132 22.3617 29.1132Z" fill="#D28384"/>
<path d="M33.9259 11.054C33.6421 10.9 33.3459 10.7461 33.0496 10.6158C32.0006 6.62503 29.0508 3.35661 25.1755 1.75792C23.7438 1.2724 22.2134 1.01187 20.6213 1.01187C13.0557 1.01187 6.92171 6.8974 6.92171 14.1566C6.92171 14.7961 6.97107 15.4356 7.06981 16.0513C3.51533 18.0053 1.10864 21.6882 1.10864 25.9158C1.10864 28.0592 1.72574 30.0724 2.81183 31.7777C4.94699 34.5842 8.42743 36.4079 12.3522 36.4079C14.6971 36.4079 16.8817 35.7566 18.7206 34.6316C19.0415 34.8448 19.3747 35.0342 19.708 35.2237C22.5713 33.3053 25.1631 30.4632 25.41 26.9224C25.5334 26.8869 24.9903 26.6027 25.1138 26.5671C30.0259 24.9329 33.6544 20.6816 34.2221 15.554C34.2715 15.0921 34.2962 14.6303 34.2962 14.1566C34.3085 13.079 34.1728 12.0369 33.9259 11.054Z" fill="#D28384"/>
<path d="M33.4572 13.825C33.4572 14.2987 33.4325 14.7605 33.3832 15.2224C32.9142 19.5211 30.273 23.1921 26.5457 25.2408C25.8299 25.6316 25.0647 25.9632 24.2748 26.2355C24.2254 26.2592 24.1637 26.2711 24.1144 26.2829C22.7444 26.7211 21.288 26.9579 19.7576 26.9579C18.1655 26.9579 16.6228 26.6974 15.2035 26.2118C14.5 25.975 13.8212 25.6789 13.1794 25.3355C12.9449 25.2053 12.7104 25.075 12.4759 24.9329C12.4636 24.85 12.4512 24.7553 12.4389 24.6724C9.29167 22.4224 7.18119 18.9171 6.93435 14.9263C6.92201 14.6539 6.90967 14.3934 6.90967 14.1211C6.90967 6.86185 13.0436 0.976318 20.6092 0.976318C22.2014 0.976318 23.7441 1.23684 25.1634 1.72237C29.0388 3.32106 32.0009 6.58948 33.0376 10.5803C33.3215 11.6342 33.4572 12.7118 33.4572 13.825Z" fill="#63C98E"/>
<path d="M26.5455 25.2408C26.1258 27.1 24.8916 28.6632 23.2131 29.575C23.6821 28.5448 23.9907 27.4434 24.1264 26.2829C24.1758 26.2711 24.2375 26.2474 24.2869 26.2355C25.0644 25.975 25.8296 25.6434 26.5455 25.2408Z" fill="#D28384"/>
<path d="M24.1143 26.2829C23.9786 27.4434 23.67 28.5447 23.201 29.575C22.2137 30.1079 21.0659 30.4158 19.844 30.4158C16.5981 30.4158 13.599 28.5566 12.8955 25.6553C13.5373 25.9987 14.5 25.975 15.2035 26.2237C16.6351 26.7092 18.1655 26.9697 19.7576 26.9697C21.288 26.9697 22.7444 26.7329 24.1143 26.2829Z" fill="#C5883C"/>
<path d="M12.5004 36.55C19.2553 36.55 24.7313 31.2958 24.7313 24.8145C24.7313 18.3331 19.2553 13.0789 12.5004 13.0789C5.74548 13.0789 0.269531 18.3331 0.269531 24.8145C0.269531 31.2958 5.74548 36.55 12.5004 36.55Z" fill="#DF9A45"/>
<path opacity="0.9" d="M31.2479 8.56708V13.4697C31.1245 13.3868 30.9887 13.3276 30.8653 13.2684C30.7419 13.2092 30.6184 13.1618 30.5074 13.1263C30.3963 13.0908 30.2729 13.0552 30.1618 13.0434C30.0507 13.0197 29.9396 13.0079 29.8162 12.996C29.7051 12.9842 29.5941 12.9842 29.4953 12.9842C29.3843 12.9842 29.2855 12.996 29.1744 12.996C29.0757 13.0079 28.9646 13.0197 28.8659 13.0316C28.7672 13.0434 28.6684 13.0671 28.5573 13.0908C28.4586 13.1144 28.3599 13.1381 28.2611 13.1618C28.1624 13.1855 28.0637 13.2092 27.9649 13.2447C27.8662 13.2684 27.7675 13.3039 27.6687 13.3276C27.57 13.3513 27.4712 13.3868 27.3849 13.4105C27.2985 13.4342 27.1874 13.4697 27.101 13.5052C27.0023 13.5408 26.9035 13.5644 26.8171 13.6C26.7678 13.6118 26.7184 13.6355 26.669 13.6473L26.706 23.8671C26.706 24.3526 26.6567 24.8145 26.5456 25.2645C25.8298 25.6552 25.0646 25.9868 24.2747 26.2592C24.2253 26.2829 24.1636 26.2947 24.1142 26.3066C22.7443 26.7447 21.2879 26.9816 19.7575 26.9816C18.1654 26.9816 16.6227 26.721 15.2033 26.2355C14.4998 25.9987 13.821 25.7026 13.1793 25.3592C13.0188 24.7197 12.9694 24.0447 13.0188 23.3579C13.278 20.0658 16.092 17.4368 19.523 17.2829C19.6341 17.2829 19.7328 17.271 19.8439 17.271C20.2635 17.271 20.6708 17.3066 21.0658 17.3776C21.8433 17.5079 22.5715 17.7684 23.2256 18.1355V8.85129L23.2503 8.87497C23.3737 8.94602 23.4848 9.01708 23.6082 9.06445C23.7316 9.12366 23.8551 9.15918 23.9661 9.20655C24.0896 9.24208 24.2006 9.26576 24.3117 9.28945C24.4228 9.31313 24.5339 9.32497 24.6449 9.32497C24.756 9.33681 24.8671 9.33681 24.9782 9.33681C25.0892 9.33681 25.188 9.32497 25.2991 9.31313C25.4101 9.30129 25.5089 9.28945 25.6076 9.26576C25.7063 9.25392 25.8174 9.23024 25.9162 9.20655C26.0149 9.18287 26.1136 9.15918 26.2124 9.1355C26.3111 9.11181 26.4098 9.08813 26.5086 9.0526C26.6073 9.02892 26.706 8.99339 26.8048 8.96971C26.9035 8.94602 27.0023 8.9105 27.0886 8.88681C27.175 8.86313 27.2861 8.8276 27.3725 8.79208C27.4589 8.75655 27.57 8.73287 27.6564 8.70918C27.7551 8.67366 27.8538 8.64997 27.9526 8.62629C28.0513 8.6026 28.1501 8.56708 28.2488 8.54339C28.3475 8.51971 28.4463 8.49602 28.545 8.47234C28.6437 8.44866 28.7425 8.43681 28.8535 8.41313C28.9523 8.40129 29.0634 8.3776 29.1621 8.3776C29.2732 8.36576 29.3719 8.36576 29.483 8.36576C29.5941 8.36576 29.7051 8.36576 29.8039 8.3776C29.915 8.38945 30.026 8.40129 30.1495 8.42497C30.2605 8.44866 30.2482 7.96313 30.3716 7.99866C30.495 8.03418 30.7419 8.12892 30.8653 8.18813C30.9887 8.25918 31.1738 8.42497 31.2479 8.56708Z" fill="#519E69"/>
<path d="M30.6062 9.17107C30.6062 9.06449 30.6062 8.94607 30.6062 8.83949C30.6062 8.72107 30.6062 8.60265 30.6062 8.48422C30.6062 8.3658 30.6062 8.23554 30.6062 8.10528C30.4828 8.02238 30.347 7.96317 30.2236 7.90396C30.1002 7.84475 29.9767 7.79738 29.8657 7.76186C29.7422 7.72633 29.6312 7.6908 29.5201 7.67896C29.409 7.65528 29.2979 7.64344 29.1868 7.63159C29.0758 7.61975 28.9647 7.61975 28.8536 7.61975C28.7425 7.61975 28.6438 7.63159 28.5327 7.63159C28.434 7.64344 28.3229 7.65528 28.2242 7.66712C28.1254 7.67896 28.0144 7.70265 27.9156 7.72633C27.8169 7.75001 27.7182 7.7737 27.6194 7.79738C27.5207 7.82107 27.4219 7.84475 27.3232 7.88028C27.2245 7.90396 27.1257 7.93949 27.027 7.96317C26.9283 7.98686 26.8295 8.02238 26.7431 8.04607C26.6444 8.08159 26.5457 8.10528 26.4593 8.1408C26.3605 8.17633 26.2618 8.20001 26.1754 8.2237C26.0767 8.24738 25.9779 8.28291 25.8792 8.30659C25.7805 8.33028 25.6817 8.3658 25.583 8.38949C25.4843 8.41317 25.3855 8.43686 25.2868 8.46054C25.1881 8.48422 25.0893 8.49607 24.9782 8.51975C24.8672 8.54343 24.7684 8.55528 24.6697 8.55528C24.571 8.56712 24.4599 8.56712 24.3488 8.57896C24.2377 8.57896 24.1266 8.57896 24.0156 8.56712C23.9045 8.55528 23.7934 8.54343 23.6823 8.53159C23.5713 8.50791 23.4478 8.48422 23.3368 8.4487C23.2133 8.41317 23.1023 8.3658 22.9788 8.31843C22.8678 8.27107 22.7443 8.20001 22.6209 8.12896L22.5962 8.10528V17.3776C21.5101 16.7855 20.2389 16.4658 18.8813 16.525C15.4502 16.679 12.6239 19.3079 12.3771 22.5882C12.0809 26.4487 15.2528 29.6579 19.2145 29.6579C23.0035 29.6579 26.0643 26.7092 26.0643 23.0855L26.015 12.8776C26.0643 12.8658 26.1137 12.854 26.1631 12.8303C26.2618 12.8066 26.3605 12.7711 26.4469 12.7474C26.5457 12.7119 26.6444 12.6882 26.7308 12.6526C26.8295 12.6171 26.9283 12.5934 27.0147 12.5698C27.1011 12.5461 27.2121 12.5105 27.3109 12.4869C27.4096 12.4632 27.5083 12.4276 27.6071 12.404C27.7058 12.3803 27.8045 12.3566 27.9033 12.3329C28.002 12.3092 28.1008 12.2974 28.2118 12.2737C28.3106 12.2619 28.4216 12.25 28.5204 12.2382C28.6191 12.2263 28.7302 12.2263 28.8413 12.2263C28.9523 12.2263 29.0634 12.2263 29.1745 12.2382C29.2856 12.25 29.3967 12.2619 29.5077 12.2855C29.6188 12.3092 29.7422 12.3329 29.8533 12.3684C29.9767 12.404 30.0878 12.4513 30.2112 12.5105C30.3347 12.5698 30.4581 12.629 30.5938 12.7119C30.5938 12.5816 30.5938 12.4513 30.5938 12.3329C30.5938 12.2145 30.5938 12.0961 30.5938 11.9776C30.5938 11.8592 30.5938 11.7526 30.5938 11.6461C30.5938 11.5395 30.5938 11.4329 30.5938 11.3263C30.5938 11.2198 30.5938 11.1132 30.5938 11.0184C30.5938 10.9119 30.5938 10.8171 30.5938 10.7224C30.5938 10.6276 30.5938 10.5211 30.5938 10.4263C30.5938 10.3316 30.5938 10.225 30.5938 10.1303C30.5938 10.0355 30.5938 9.92896 30.5938 9.83422C30.5938 9.73949 30.5938 9.63291 30.5938 9.52633C30.6062 9.39607 30.6062 9.28949 30.6062 9.17107Z" fill="#FEFDFD"/>
</svg>
