<svg width="124" height="67" viewBox="0 0 124 67" fill="none" xmlns="http://www.w3.org/2000/svg">
<path opacity="0.2" fill-rule="evenodd" clip-rule="evenodd" d="M99.2019 66.8352C100.069 66.7517 101.148 66.6185 101.6 66.5394C102.052 66.4604 102.977 66.2586 103.656 66.0913C104.334 65.924 105.506 65.565 106.259 65.2936C107.013 65.0221 108.17 64.5419 108.83 64.2263C109.491 63.9107 110.539 63.3406 111.16 62.9594C111.781 62.5782 112.849 61.8441 113.533 61.3282C114.217 60.8123 115.151 60.0374 115.609 59.6062C116.067 59.1751 116.779 58.4517 117.191 57.9991C117.603 57.5462 118.31 56.6868 118.763 56.0893C119.216 55.4917 119.912 54.4324 120.308 53.7353C120.705 53.0381 121.269 51.907 121.562 51.2217C121.854 50.5363 122.241 49.477 122.42 48.8676C122.6 48.2582 122.86 47.135 122.998 46.3714C123.196 45.2814 123.249 44.3217 123.245 41.9048C123.242 39.5286 123.186 38.5514 123.001 37.62C122.869 36.9565 122.635 35.9787 122.481 35.4472C122.327 34.9157 121.923 33.8561 121.583 33.0924C121.243 32.3288 120.684 31.2695 120.342 30.7383C119.999 30.2071 119.375 29.338 118.954 28.8068C118.533 28.2756 117.632 27.3302 116.952 26.7058C116.272 26.0815 115.121 25.1513 114.394 24.639C113.668 24.1265 112.527 23.4111 111.859 23.0492C111.191 22.6873 110.059 22.1173 109.343 21.7825C108.627 21.4478 107.116 20.8454 105.985 20.444C104.855 20.0426 103.445 19.5905 102.853 19.4395L101.776 19.1649L101.869 18.4327C101.92 18.0301 102.115 17.0488 102.303 16.252C102.492 15.4553 102.882 14.1787 103.17 13.4151C103.458 12.6516 103.999 11.4565 104.371 10.7593C104.743 10.0622 105.393 9.00286 105.816 8.4053C106.238 7.80774 106.982 6.88352 107.468 6.35151C107.953 5.8195 108.961 4.86885 109.706 4.23894C110.452 3.60902 111.717 2.67297 112.519 2.15871C113.32 1.64456 114.074 1.19054 114.195 1.14986C114.315 1.1093 114.412 1.01393 114.411 0.937995C114.41 0.86206 114.096 0.620025 113.714 0.400077L113.02 6.81699e-06L110.942 0.363616C109.799 0.563643 107.767 1.00186 106.427 1.33745C105.087 1.67318 102.99 2.29391 101.767 2.71703C100.545 3.14015 98.8163 3.78961 97.9263 4.1601C97.0364 4.53071 95.7414 5.11619 95.0485 5.46121C94.3556 5.80622 92.833 6.64461 91.6647 7.32438C90.4964 8.00415 88.7117 9.14772 87.6989 9.8654C86.6859 10.5832 85.0439 11.8661 84.0499 12.7162C83.056 13.5663 81.5534 14.9606 80.7109 15.8147C79.8684 16.6688 78.744 17.877 78.2123 18.4998C77.6806 19.1226 76.7871 20.2422 76.2267 20.9877C75.6663 21.7332 74.7785 23.0369 74.2536 23.885C73.7286 24.7329 72.9048 26.2445 72.423 27.2441C71.9412 28.2436 71.2668 29.8812 70.9245 30.8829C70.5822 31.8848 70.1492 33.4028 69.9625 34.2564C69.7757 35.11 69.5443 36.4332 69.4483 37.1968C69.3521 37.9603 69.2737 39.7258 69.274 41.1201C69.2744 42.767 69.3567 44.2519 69.5091 45.3583C69.6382 46.2951 69.9238 47.7075 70.1436 48.497C70.3636 49.2866 70.7959 50.5753 71.1045 51.361C71.413 52.1465 71.9764 53.335 72.3564 54.0019C72.7364 54.669 73.3597 55.656 73.7416 56.1953C74.1235 56.7345 74.8433 57.6375 75.3411 58.2019C75.839 58.7662 76.6784 59.6306 77.2063 60.1226C77.7343 60.6147 78.7212 61.4258 79.3996 61.9251C80.0779 62.4244 81.1263 63.1155 81.7293 63.4607C82.3322 63.806 83.446 64.3619 84.2042 64.6959C84.9625 65.0301 86.3192 65.5229 87.2191 65.791C88.119 66.0592 89.472 66.3872 90.2258 66.52C90.9795 66.6528 92.3362 66.8177 93.2406 66.8866C94.1451 66.9556 95.5018 67.0063 96.2555 66.9994C97.0092 66.9926 98.3351 66.9186 99.2019 66.8352ZM29.5855 66.887C30.3015 66.8253 31.5316 66.6629 32.3189 66.5264C33.1062 66.3897 34.5133 66.0593 35.4459 65.7921C36.3784 65.5248 37.8263 65.0041 38.6632 64.6351C39.5002 64.2661 40.7699 63.6147 41.4848 63.1877C42.1998 62.7607 43.2221 62.0936 43.7565 61.7051C44.2911 61.3168 45.2921 60.4919 45.9811 59.8721C46.6702 59.2522 47.6411 58.292 48.1388 57.7384C48.6364 57.1847 49.3941 56.234 49.8222 55.6258C50.2505 55.0175 50.9536 53.868 51.3849 53.0713C51.8161 52.2746 52.3854 51.0251 52.65 50.2948C52.9147 49.5644 53.2556 48.4508 53.4077 47.82C53.5598 47.1893 53.7627 46.13 53.8586 45.466C53.9545 44.8021 54.0309 43.1995 54.0283 41.9048C54.0252 40.3831 53.9421 39.0333 53.7932 38.0869C53.6666 37.2819 53.4405 36.2112 53.2907 35.7078C53.1411 35.2044 52.8087 34.2877 52.5523 33.6708C52.2959 33.0538 51.9488 32.2805 51.7809 31.9524C51.6131 31.6241 51.1655 30.8908 50.7864 30.3227C50.4075 29.7544 49.7527 28.8822 49.3315 28.3843C48.9102 27.8863 47.9797 26.958 47.2637 26.3212C46.5476 25.6845 45.3359 24.7544 44.5708 24.2542C43.8059 23.7541 42.665 23.0724 42.0356 22.7392C41.4063 22.4062 40.3363 21.8908 39.658 21.594C38.9796 21.2972 37.6537 20.7812 36.7116 20.4473C35.7694 20.1135 34.4436 19.6867 33.7652 19.499C33.0869 19.3113 32.5172 19.1519 32.4993 19.1449C32.4813 19.1378 32.5822 18.5113 32.7233 17.7524C32.8646 16.9936 33.1749 15.6982 33.413 14.8735C33.6511 14.049 34.1181 12.7888 34.451 12.0732C34.7837 11.3575 35.2431 10.4453 35.4718 10.0462C35.7005 9.64713 36.1766 8.9245 36.5297 8.44042C36.8829 7.95634 37.5308 7.14246 37.9695 6.63194C38.4081 6.12129 39.3066 5.22243 39.9662 4.63429C40.6257 4.04602 41.6896 3.20883 42.3302 2.77352C42.9709 2.33833 43.8804 1.75224 44.3516 1.47109C44.8226 1.18994 45.2067 0.92386 45.2051 0.879922C45.2034 0.835977 44.8838 0.621095 44.4949 0.402475L43.7879 0.00495279L41.8599 0.328477C40.7996 0.506417 38.7814 0.941133 37.3751 1.29447C35.9688 1.64782 33.9168 2.23789 32.8151 2.60572C31.7135 2.97343 30.1198 3.5588 29.2737 3.90622C28.4276 4.25378 26.9646 4.91193 26.0225 5.36873C25.0803 5.82565 23.7236 6.52932 23.0076 6.93264C22.2915 7.33584 20.904 8.19138 19.9242 8.83373C18.9443 9.47607 17.526 10.4807 16.7722 11.0661C16.0185 11.6515 14.6836 12.7696 13.8057 13.5508C12.9279 14.332 11.5492 15.6668 10.7421 16.517C9.9349 17.3672 8.76554 18.6875 8.14338 19.4511C7.52121 20.2146 6.54905 21.5184 5.98294 22.3483C5.41697 23.1783 4.63556 24.4166 4.24651 25.1001C3.85745 25.7838 3.21007 27.0605 2.80772 27.9375C2.40551 28.8145 1.82282 30.3196 1.51284 31.282C1.20299 32.2445 0.830364 33.548 0.684833 34.1788C0.539157 34.8095 0.314548 36.1948 0.185596 37.2571C0.00291715 38.7607 -0.0321705 39.8037 0.0270334 41.9652C0.0688347 43.4923 0.196551 45.2873 0.310709 45.9543C0.42486 46.6213 0.644815 47.6772 0.799257 48.3007C0.953707 48.9242 1.3614 50.1646 1.70509 51.0572C2.04879 51.9497 2.66548 53.2694 3.07563 53.9896C3.48566 54.7099 4.07616 55.6671 4.38765 56.1168C4.69928 56.5665 5.37132 57.4232 5.88126 58.0208C6.39132 58.6183 7.4161 59.6522 8.15886 60.3181C8.90147 60.9841 9.94079 61.8297 10.4684 62.1973C10.996 62.5649 11.8097 63.0929 12.2769 63.3708C12.744 63.6486 13.7615 64.1689 14.5381 64.527C15.3146 64.8852 16.4742 65.3443 17.1148 65.5472C17.7555 65.7503 18.8166 66.0522 19.4728 66.2184C20.1289 66.3845 21.3623 66.6068 22.2136 66.7122C23.0649 66.8176 24.7788 66.9254 26.0224 66.9516C27.2661 66.9778 28.8695 66.9488 29.5855 66.887Z" fill="#F39798"/>
</svg>
